#N canvas 0 22 1280 752 10;
#X declare -lib Gem;
#N canvas 428 114 583 490 sf 0;
#N canvas 0 22 450 300 (subpatch) 0;
#X array 1_sf 81580 float 2;
#X coords 0 1 81580 -1 200 80 1;
#X restore 23 22 graph;
#N canvas 0 22 450 300 (subpatch) 0;
#X array 2_sf 59540 float 2;
#X coords 0 1 59540 -1 200 80 1;
#X restore 23 127 graph;
#N canvas 0 22 450 300 (subpatch) 0;
#X array 3_sf 53800 float 2;
#X coords 0 1 53800 -1 200 80 1;
#X restore 23 227 graph;
#N canvas 0 22 450 300 (subpatch) 0;
#X array 4_sf 96140 float 2;
#X coords 0 1 96140 -1 200 80 1;
#X restore 23 333 graph;
#N canvas 0 22 450 300 (subpatch) 0;
#X array 5_sf 46740 float 2;
#X coords 0 1 46740 -1 200 80 1;
#X restore 287 23 graph;
#N canvas 0 22 450 300 (subpatch) 0;
#X array 6_sf 75420 float 2;
#X coords 0 1 75420 -1 200 80 1;
#X restore 287 129 graph;
#N canvas 0 22 450 300 (subpatch) 0;
#X array 7_sf 32640 float 2;
#X coords 0 1 32640 -1 200 80 1;
#X restore 287 229 graph;
#N canvas 0 22 450 300 (subpatch) 0;
#X array 8_sf 6520 float 2;
#X coords 0 1 6520 -1 200 80 1 0 0;
#X restore 287 335 graph;
#X restore 20 -20 pd sf;
#X obj -104 482 bng 15 250 50 0 empty empty empty 0 -6 0 8 -262144
-1 -1;
#X obj -20 482 bng 15 250 50 0 empty empty empty 0 -6 0 8 -262144 -1
-1;
#X obj 64 482 bng 15 250 50 0 empty empty empty 0 -6 0 8 -262144 -1
-1;
#X obj 148 482 bng 15 250 50 0 empty empty empty 0 -6 0 8 -262144 -1
-1;
#X obj 72 590 bng 15 250 50 0 empty empty empty 0 -6 0 8 -262144 -1
-1;
#X obj 156 590 bng 15 250 50 0 empty empty empty 0 -6 0 8 -262144 -1
-1;
#X obj 240 590 bng 15 250 50 0 empty empty empty 0 -6 0 8 -262144 -1
-1;
#X obj 324 590 bng 15 250 50 0 empty empty empty 0 -6 0 8 -262144 -1
-1;
#X obj -104 505 tabplay~ 1_sf;
#X obj -20 505 tabplay~ 2_sf;
#X obj 64 505 tabplay~ 3_sf;
#X obj 148 505 tabplay~ 4_sf;
#X obj 70 606 tabplay~ 5_sf;
#X obj 154 606 tabplay~ 6_sf;
#X obj 238 606 tabplay~ 7_sf;
#X obj 322 606 tabplay~ 8_sf;
#X text 68 -19 < -- Soundfiles are here as "tables";
#N canvas 198 441 413 309 sfloader 0;
#X obj 148 259 soundfiler;
#X floatatom 148 206 0 0 0 0 - - -;
#X obj 148 180 + 1;
#X msg 148 76 bang;
#X msg 57 134 stop;
#X obj 148 154 float;
#X obj 148 102 trigger bang bang;
#X msg 262 134 0;
#X text 185 75 <--- click here to start;
#X obj 57 108 select 8;
#X text 15 8 Simple Counter (counts to 8);
#X obj 148 48 loadbang;
#X obj 148 128 metro 20;
#X msg 148 234 read -resize sflib_sounds/\$1.wav \$1_sf;
#X connect 1 0 13 0;
#X connect 2 0 1 0;
#X connect 2 0 5 1;
#X connect 2 0 9 0;
#X connect 3 0 6 0;
#X connect 4 0 12 0;
#X connect 5 0 2 0;
#X connect 6 0 12 0;
#X connect 6 1 7 0;
#X connect 7 0 5 1;
#X connect 9 0 4 0;
#X connect 11 0 3 0;
#X connect 12 0 5 0;
#X connect 13 0 0 0;
#X restore 20 5 pd sfloader;
#X text 110 7 < -- Soundfiles are loaded here;
#X msg -123 -20 create \, 1;
#X msg -116 1 0 \, destroy;
#X obj -58 81 gemhead;
#X msg -114 201 0;
#X obj -58 359 separator;
#X obj -58 107 t b;
#X obj -58 173 t b l;
#X obj -31 196 s list-info;
#X text 318 -19 list items contain:;
#X text 319 -3 1 the index number;
#X text 320 13 2 X coordinate;
#X text 319 29 3 Y coordinate;
#X text 321 44 4 Red color value;
#X text 320 60 5 Green color value;
#X text 321 75 6 Blue color value;
#X obj -58 382 pix_video;
#X obj -234 -17 declare -lib Gem;
#X obj -58 240 pix_video;
#X obj -58 265 pix_rgba;
#X msg -48 300 reset;
#X obj 96 316 hsl 100 15 0 1 0 0 empty empty empty -2 -8 0 10 -262144
-1 -1 3980 1;
#X text 129 317 threshold;
#X obj -58 218 gemhead;
#X obj 68 289 loadbang;
#X msg 67 314 0.2;
#X obj -58 337 pix_background;
#X obj 177 267 tgl 15 0 empty empty empty 17 7 0 10 -262144 -1 -1 1
1;
#X obj -116 181 loadbang;
#X obj -58 60 loadbang;
#N canvas 488 301 214 285 shape 0;
#X obj 67 48 inlet;
#X obj 66 237 outlet;
#X obj 67 122 translateXYZ;
#X obj 67 78 separator;
#X obj 67 175 colorRGB;
#N canvas 343 294 449 122 colors 0;
#X obj 7 11 r list-info;
#X obj 7 32 unpack f f f f f f;
#X obj 7 83 outlet red;
#X obj 73 83 outlet green;
#X obj 152 83 outlet blue;
#X text 230 15 This subpatch takes the RGB color;
#X text 231 29 values from the list.;
#X connect 0 0 1 0;
#X connect 1 3 2 0;
#X connect 1 4 3 0;
#X connect 1 5 4 0;
#X restore 78 146 pd colors;
#N canvas 166 209 450 300 position 0;
#X obj 11 13 r list-info;
#X obj 11 34 unpack f f f f f f;
#X obj 144 13 gemhead;
#X obj 144 57 gemlist_info;
#X obj 161 79 unpack f f f;
#X obj 161 124 == 0;
#X obj 93 230 * -1;
#X obj 30 227 * -1;
#X obj 161 102 change;
#X obj 161 146 sel 0 1;
#X obj 93 255 outlet y;
#X msg 161 181 1;
#X msg 191 181 -1;
#X obj 30 253 outlet x;
#X text 255 13 this subpatch makes sure;
#X text 256 29 the dots are placed at the;
#X text 257 45 right spot.;
#X obj 34 112 * -8;
#X obj 34 133 + 4;
#X obj 87 133 + 3;
#X obj 87 111 * -6;
#X obj 144 36 rotateXYZ 0 180 0;
#X connect 0 0 1 0;
#X connect 1 1 17 0;
#X connect 1 2 20 0;
#X connect 2 0 21 0;
#X connect 3 1 4 0;
#X connect 4 0 8 0;
#X connect 5 0 9 0;
#X connect 6 0 10 0;
#X connect 7 0 13 0;
#X connect 8 0 5 0;
#X connect 9 0 11 0;
#X connect 9 1 12 0;
#X connect 11 0 7 1;
#X connect 12 0 7 1;
#X connect 17 0 18 0;
#X connect 18 0 7 0;
#X connect 19 0 6 0;
#X connect 20 0 19 0;
#X connect 21 0 3 0;
#X restore 90 99 pd position;
#X obj 67 206 circle 0.3;
#X connect 0 0 3 0;
#X connect 2 0 4 0;
#X connect 3 0 2 0;
#X connect 4 0 7 0;
#X connect 5 0 4 1;
#X connect 5 1 4 2;
#X connect 5 2 4 3;
#X connect 6 0 2 1;
#X connect 6 1 2 2;
#X connect 7 0 1 0;
#X restore -141 354 pd shape;
#N canvas 751 477 242 234 translatexyz 0;
#X obj 41 21 inlet;
#X obj 42 153 outlet;
#X obj 42 96 pix_texture;
#X obj 42 49 pix_separator;
#X obj 42 75 translateXYZ 0 0.5 -0.07;
#X obj 42 124 rotateXYZ 0 180 0;
#X connect 0 0 3 0;
#X connect 2 0 5 0;
#X connect 3 0 4 0;
#X connect 4 0 2 0;
#X connect 5 0 1 0;
#X restore -164 398 pd translatexyz;
#N canvas 113 114 504 450 triggers 0;
#X obj 31 17 inlet;
#X obj 208 123 pix_data;
#X obj 187 24 pix_separator;
#X obj 208 97 t b f;
#X floatatom 173 196 5 0 0 0 - - -;
#X floatatom 216 196 5 0 0 0 - - -;
#X floatatom 264 195 5 0 0 0 - - -;
#X floatatom 312 196 5 0 0 0 - - -;
#X obj 186 45 pix_rgba;
#X obj 194 146 list prepend;
#N canvas 318 523 450 300 index-position 0;
#X obj 14 13 r list-info;
#X obj 14 34 unpack f f f f f f;
#X text 166 10 this subpatch takes the index and the;
#X text 166 28 coordinates from the list;
#X obj 14 124 outlet index;
#X obj 96 124 outlet x;
#X obj 153 124 outlet y;
#X connect 0 0 1 0;
#X connect 1 0 4 0;
#X connect 1 1 5 0;
#X connect 1 2 6 0;
#X restore 177 70 pd index-position;
#X obj 166 263 int;
#X obj 162 312 change;
#X obj 166 239 * 2;
#X obj 223 263 int;
#X obj 221 312 change;
#X obj 224 240 * 2;
#X obj 270 262 int;
#X obj 267 311 change;
#X obj 270 240 * 2;
#X obj 313 262 int;
#X obj 313 239 * 2;
#X obj 166 218 > 0.3;
#X obj 270 217 > 0.3;
#X obj 312 216 > 0.3;
#X obj 194 172 route 1 2 3 4;
#X obj 224 218 > 0.3;
#X floatatom 313 286 5 0 0 0 - - -;
#X obj 313 311 moses 2;
#X obj 163 337 tgl 15 0 empty empty empty 17 7 0 10 -258113 -1 -1 0
2;
#X obj 221 337 tgl 15 0 empty empty empty 17 7 0 10 -4032 -1 -1 0 2
;
#X obj 273 338 tgl 15 0 empty empty empty 17 7 0 10 -4160 -1 -1 0 2
;
#X obj 319 338 tgl 15 0 empty empty empty 17 7 0 10 -257985 -1 -1 2
2;
#X floatatom 270 286 5 0 0 0 - - -;
#X floatatom 223 286 5 0 0 0 - - -;
#X floatatom 164 286 5 0 0 0 - - -;
#X obj 163 360 outlet;
#X obj 214 360 outlet;
#X obj 263 360 outlet;
#X obj 309 361 outlet;
#X text 267 176 comment;
#X text 162 178 comment;
#X text 219 177 comment;
#X connect 0 0 2 0;
#X connect 1 2 9 0;
#X connect 2 0 8 0;
#X connect 3 0 1 0;
#X connect 3 1 9 1;
#X connect 4 0 22 0;
#X connect 5 0 26 0;
#X connect 6 0 23 0;
#X connect 7 0 24 0;
#X connect 8 0 1 1;
#X connect 9 0 25 0;
#X connect 10 0 3 0;
#X connect 10 1 1 2;
#X connect 10 2 1 3;
#X connect 11 0 35 0;
#X connect 12 0 29 0;
#X connect 13 0 11 0;
#X connect 14 0 34 0;
#X connect 15 0 30 0;
#X connect 16 0 14 0;
#X connect 17 0 33 0;
#X connect 18 0 31 0;
#X connect 19 0 17 0;
#X connect 20 0 27 0;
#X connect 21 0 20 0;
#X connect 22 0 13 0;
#X connect 23 0 19 0;
#X connect 24 0 21 0;
#X connect 25 0 4 0;
#X connect 25 1 5 0;
#X connect 25 2 6 0;
#X connect 25 3 7 0;
#X connect 26 0 16 0;
#X connect 27 0 28 0;
#X connect 28 1 32 0;
#X connect 29 0 36 0;
#X connect 30 0 37 0;
#X connect 31 0 38 0;
#X connect 32 0 39 0;
#X connect 33 0 18 0;
#X connect 34 0 15 0;
#X connect 35 0 12 0;
#X restore 77 399 pd triggers;
#X obj 36 428 bng 20 250 50 0 empty empty empty 17 7 0 10 -258113 -1
-1;
#X obj 98 533 bng 20 250 50 0 empty empty empty 17 7 0 10 -4032 -1
-1;
#X obj 120 634 bng 20 250 50 0 empty empty empty 17 7 0 10 -4160 -1
-1;
#X obj 512 414 bng 20 250 50 0 empty empty empty 17 7 0 10 -257985
-1 -1;
#X obj 28 448 random 4;
#X obj 13 464 select 0 1 2 3;
#X obj 85 553 random 4;
#X obj 73 572 select 0 1 2 3;
#X msg -58 135 1 0.9 0.5 1 0 0 \, 2 0.8 0.9 0 1 1 \, 3 0.5 0.7 0 0
1 \, 4 0.2 0.9 1 1 0 \,;
#X obj 511 520 freeverb~;
#X msg 568 471 roomsize \$1;
#X obj 515 457 hsl 125 15 0 1 0 0 empty empty empty -2 -8 0 10 -159808
-1 -1 3100 1;
#N canvas 175 91 475 568 Seq 0;
#X obj 99 37 inlet;
#X obj 47 527 outlet;
#X obj 44 375 bng 25 250 50 0 empty empty empty 17 7 0 10 -262144 -1
-1;
#X obj 87 373 bng 25 250 50 0 empty empty empty 17 7 0 10 -262144 -1
-1;
#X obj 129 374 bng 25 250 50 0 empty empty empty 17 7 0 10 -262144
-1 -1;
#X obj 177 374 bng 25 250 50 0 empty empty empty 17 7 0 10 -262144
-1 -1;
#X msg 45 402 0.25;
#X msg 84 402 0.5;
#X msg 129 402 0.75;
#X msg 177 401 1;
#X obj 84 162 counter;
#X floatatom 84 226 5 0 0 0 - - -;
#X obj 83 115 tgl 15 0 empty empty empty 17 7 0 10 -262144 -1 -1 0
1;
#X obj 83 136 metro 500;
#X obj 82 253 sel 0 1 2 3 4 5 6 7 8 9 10 11 12 13 14 15 16 17 18 19
20;
#X obj 86 195 % 20;
#X obj 102 80 bng 20 250 50 0 empty empty empty 17 7 0 10 -262144 -1
-1;
#X obj 199 179 bng 15 250 50 0 empty empty empty 17 7 0 10 -262144
-1 -1;
#X text 239 93 when counter reaches 19 threshold should reset bang
;
#X obj 199 161 moses 19;
#X obj 244 180 bng 15 250 50 0 empty empty empty 17 7 0 10 -262144
-1 -1;
#X connect 0 0 16 0;
#X connect 2 0 6 0;
#X connect 3 0 7 0;
#X connect 4 0 8 0;
#X connect 5 0 9 0;
#X connect 6 0 1 0;
#X connect 7 0 1 0;
#X connect 8 0 1 0;
#X connect 9 0 1 0;
#X connect 10 0 15 0;
#X connect 11 0 14 0;
#X connect 11 0 19 0;
#X connect 12 0 13 0;
#X connect 13 0 10 0;
#X connect 14 0 2 0;
#X connect 14 1 3 0;
#X connect 14 2 4 0;
#X connect 14 3 5 0;
#X connect 14 4 5 0;
#X connect 14 5 5 0;
#X connect 14 6 5 0;
#X connect 14 7 5 0;
#X connect 14 8 5 0;
#X connect 14 9 5 0;
#X connect 14 10 5 0;
#X connect 14 11 5 0;
#X connect 14 12 4 0;
#X connect 14 13 4 0;
#X connect 14 14 4 0;
#X connect 14 15 4 0;
#X connect 14 16 3 0;
#X connect 14 17 3 0;
#X connect 14 18 3 0;
#X connect 14 19 2 0;
#X connect 14 20 2 0;
#X connect 14 21 2 0;
#X connect 15 0 11 0;
#X connect 16 0 12 0;
#X connect 16 0 10 2;
#X connect 19 0 17 0;
#X connect 19 1 20 0;
#X connect 20 0 16 0;
#X restore 512 437 pd Seq Reverb;
#X msg 511 473 wet \$1;
#X obj -1 283 metro 500;
#X obj 85 691 bng 15 250 50 0 empty empty empty 0 -6 0 8 -262144 -1
-1;
#X obj 169 691 bng 15 250 50 0 empty empty empty 0 -6 0 8 -262144 -1
-1;
#X obj 253 691 bng 15 250 50 0 empty empty empty 0 -6 0 8 -262144 -1
-1;
#X obj 346 692 bng 15 250 50 0 empty empty empty 0 -6 0 8 -262144 -1
-1;
#X obj 98 654 random 4;
#X obj 86 673 select 0 1 2 3;
#X obj 83 707 tabplay~ 9_sf;
#X obj 167 707 tabplay~ 10_sf;
#X obj 260 708 tabplay~ 11_sf;
#X obj 351 708 tabplay~ 12_sf;
#X obj -164 424 rectangle 4 3;
#X obj -123 24 gemwin;
#X connect 1 0 9 0;
#X connect 2 0 10 0;
#X connect 3 0 11 0;
#X connect 4 0 12 0;
#X connect 5 0 13 0;
#X connect 6 0 14 0;
#X connect 7 0 15 0;
#X connect 8 0 16 0;
#X connect 20 0 78 0;
#X connect 21 0 78 0;
#X connect 22 0 25 0;
#X connect 23 0 42 0;
#X connect 24 0 35 0;
#X connect 25 0 60 0;
#X connect 26 0 42 0;
#X connect 26 1 27 0;
#X connect 35 0 50 0;
#X connect 35 0 51 0;
#X connect 37 0 38 0;
#X connect 38 0 45 0;
#X connect 39 0 45 0;
#X connect 40 0 45 1;
#X connect 42 0 37 0;
#X connect 43 0 44 0;
#X connect 44 0 40 0;
#X connect 45 0 24 0;
#X connect 45 0 49 0;
#X connect 46 0 66 0;
#X connect 47 0 23 0;
#X connect 48 0 22 0;
#X connect 50 0 77 0;
#X connect 51 0 52 0;
#X connect 51 1 53 0;
#X connect 51 2 54 0;
#X connect 51 3 55 0;
#X connect 52 0 56 0;
#X connect 53 0 58 0;
#X connect 54 0 71 0;
#X connect 55 0 64 0;
#X connect 56 0 57 0;
#X connect 57 0 1 0;
#X connect 57 1 2 0;
#X connect 57 2 3 0;
#X connect 57 3 4 0;
#X connect 58 0 59 0;
#X connect 59 0 5 0;
#X connect 59 1 6 0;
#X connect 59 2 7 0;
#X connect 59 3 8 0;
#X connect 60 0 26 0;
#X connect 62 0 61 0;
#X connect 63 0 62 0;
#X connect 63 0 65 0;
#X connect 64 0 63 0;
#X connect 65 0 61 0;
#X connect 66 0 39 0;
#X connect 67 0 73 0;
#X connect 68 0 74 0;
#X connect 69 0 75 0;
#X connect 70 0 76 0;
#X connect 71 0 72 0;
#X connect 72 0 67 0;
#X connect 72 1 68 0;
#X connect 72 2 69 0;
#X connect 72 3 70 0;
