#N canvas 3 22 594 752 10;
#X declare -lib Gem;
#X msg 12 17 create \, 1;
#X msg 19 38 0 \, destroy;
#X obj 323 589 pix_texture;
#X obj 185 111 gemhead;
#X msg 100 208 0;
#X obj 522 492 translateXYZ;
#X obj 152 434 separator;
#X obj 185 137 t b;
#X obj 522 448 separator;
#X obj 86 711 pix_data;
#X obj 41 578 pix_separator;
#X obj 323 534 pix_separator;
#X obj 86 685 t b f;
#X obj 131 763 route 1 2 3 4;
#X floatatom 122 816 5 0 0 0 - - -;
#X floatatom 184 816 5 0 0 0 - - -;
#X floatatom 232 815 5 0 0 0 - - -;
#X floatatom 280 816 5 0 0 0 - - -;
#X obj 323 568 translateXYZ 0 0 -0.01;
#X obj 522 545 colorRGB;
#X obj 12 61 gemwin 12;
#X obj 40 599 pix_rgba;
#X obj 131 737 list prepend;
#X obj 455 689 rectangle 4 3;
#X obj 185 203 t b l;
#X obj 212 226 s list-info;
#N canvas 343 294 449 122 colors 0;
#X obj 7 11 r list-info;
#X obj 7 32 unpack f f f f f f;
#X obj 7 83 outlet red;
#X obj 73 83 outlet green;
#X obj 152 83 outlet blue;
#X text 230 15 This subpatch takes the RGB color;
#X text 231 29 values from the list.;
#X connect 0 0 1 0;
#X connect 1 3 2 0;
#X connect 1 4 3 0;
#X connect 1 5 4 0;
#X restore 533 516 pd colors;
#N canvas 166 209 450 300 position 0;
#X obj 11 13 r list-info;
#X obj 11 34 unpack f f f f f f;
#X obj 144 13 gemhead;
#X obj 144 57 gemlist_info;
#X obj 161 79 unpack f f f;
#X obj 161 124 == 0;
#X obj 93 230 * -1;
#X obj 30 227 * -1;
#X obj 161 102 change;
#X obj 161 146 sel 0 1;
#X obj 93 255 outlet y;
#X msg 161 181 1;
#X msg 191 181 -1;
#X obj 30 253 outlet x;
#X text 255 13 this subpatch makes sure;
#X text 256 29 the dots are placed at the;
#X text 257 45 right spot.;
#X text 257 60 It takes into account if;
#X text 259 76 you flipped the image;
#X text 259 93 around with mn-flip.;
#X obj 34 112 * -8;
#X obj 34 133 + 4;
#X obj 87 133 + 3;
#X obj 87 111 * -6;
#X obj 144 36 rotateXYZ 0 180 0;
#X connect 0 0 1 0;
#X connect 1 1 20 0;
#X connect 1 2 23 0;
#X connect 2 0 24 0;
#X connect 3 1 4 0;
#X connect 4 0 8 0;
#X connect 5 0 9 0;
#X connect 6 0 10 0;
#X connect 7 0 13 0;
#X connect 8 0 5 0;
#X connect 9 0 11 0;
#X connect 9 1 12 0;
#X connect 11 0 7 1;
#X connect 12 0 7 1;
#X connect 20 0 21 0;
#X connect 21 0 7 0;
#X connect 22 0 6 0;
#X connect 23 0 22 0;
#X connect 24 0 3 0;
#X restore 545 469 pd position;
#N canvas 318 523 450 300 index-position 0;
#X obj 14 13 r list-info;
#X obj 14 34 unpack f f f f f f;
#X text 166 10 this subpatch takes the index and the;
#X text 166 28 coordinates from the list;
#X obj 14 124 outlet index;
#X obj 96 124 outlet x;
#X obj 153 124 outlet y;
#X connect 0 0 1 0;
#X connect 1 0 4 0;
#X connect 1 1 5 0;
#X connect 1 2 6 0;
#X restore 25 619 pd index-position;
#X obj 152 477 pix_video;
#X obj 675 5 declare -lib Gem;
#X obj 227 869 tgl 15 0 empty empty empty 17 7 0 10 -262144 -1 -1 0
1;
#X obj 182 870 tgl 15 0 empty empty empty 17 7 0 10 -262144 -1 -1 0
1;
#X obj 123 873 tgl 15 0 empty empty empty 17 7 0 10 -262144 -1 -1 0
1;
#X obj 281 869 tgl 15 0 empty empty empty 17 7 0 10 -262144 -1 -1 0
1;
#X obj 121 932 int;
#X obj 121 955 change;
#X obj 124 901 * 2;
#X obj 121 980 tgl 15 0 empty empty empty 17 7 0 10 -262144 -1 -1 0
2;
#X obj 120 1009 bng 15 250 50 0 empty empty empty 17 7 0 10 -262144
-1 -1;
#X obj 181 933 int;
#X obj 181 956 change;
#X obj 180 902 * 2;
#X obj 181 982 tgl 15 0 empty empty empty 17 7 0 10 -262144 -1 -1 0
2;
#X obj 181 1009 bng 15 250 50 0 empty empty empty 17 7 0 10 -262144
-1 -1;
#X obj 229 934 int;
#X obj 229 957 change;
#X obj 228 903 * 2;
#X obj 229 983 tgl 15 0 empty empty empty 17 7 0 10 -262144 -1 -1 0
2;
#X obj 229 1010 bng 15 250 50 0 empty empty empty 17 7 0 10 -262144
-1 -1;
#X obj 281 939 int;
#X obj 281 962 change;
#X obj 280 908 * 2;
#X obj 281 988 tgl 15 0 empty empty empty 17 7 0 10 -262144 -1 -1 0
2;
#X obj 282 1013 bng 15 250 50 0 empty empty empty 17 7 0 10 -262144
-1 -1;
#X obj 185 289 pix_video;
#X obj 185 314 pix_rgba;
#X msg 196 354 reset;
#X obj 378 372 hsl 100 15 0 1 0 0 empty empty empty -2 -8 0 10 -262144
-1 -1 1980 1;
#X text 408 371 threshold;
#X obj 185 257 gemhead;
#X obj 373 314 loadbang;
#X msg 372 339 0.2;
#X obj 185 376 pix_background;
#X obj 350 324 tgl 15 0 empty empty empty 17 7 0 10 -262144 -1 -1 0
1;
#X obj 101 169 loadbang;
#X obj 185 70 loadbang;
#X text 235 796 comment;
#X text 187 797 comment;
#X text 130 798 comment;
#X obj 182 848 > 0.1;
#X obj 227 847 > 0.1;
#X obj 281 847 > 0.1;
#X obj 124 848 > 0.1;
#X msg 185 165 1 0.9 0.9 1 0 0 \, 2 0.7 0.9 0 1 1 \, 3 0.5 0.9 0 0
1 \, 4 0.3 0.9 1 1 0;
#X obj 330 636 rotateXYZ 0 180 0;
#X obj 521 567 rectangle 0.1;
#X obj 248 337 metro 300;
#X connect 0 0 20 0;
#X connect 1 0 20 0;
#X connect 2 0 75 0;
#X connect 3 0 7 0;
#X connect 4 0 60 0;
#X connect 5 0 19 0;
#X connect 6 0 29 0;
#X connect 7 0 74 0;
#X connect 8 0 5 0;
#X connect 9 2 22 0;
#X connect 10 0 21 0;
#X connect 11 0 18 0;
#X connect 12 0 9 0;
#X connect 12 1 22 1;
#X connect 13 0 14 0;
#X connect 13 1 15 0;
#X connect 13 2 16 0;
#X connect 13 3 17 0;
#X connect 14 0 73 0;
#X connect 15 0 70 0;
#X connect 16 0 71 0;
#X connect 17 0 72 0;
#X connect 18 0 2 0;
#X connect 19 0 76 0;
#X connect 21 0 9 1;
#X connect 22 0 13 0;
#X connect 24 0 60 0;
#X connect 24 1 25 0;
#X connect 26 0 19 1;
#X connect 26 1 19 2;
#X connect 26 2 19 3;
#X connect 27 0 5 1;
#X connect 27 1 5 2;
#X connect 28 0 12 0;
#X connect 28 1 9 2;
#X connect 28 2 9 3;
#X connect 29 0 11 0;
#X connect 29 0 10 0;
#X connect 31 0 47 0;
#X connect 32 0 42 0;
#X connect 33 0 37 0;
#X connect 34 0 52 0;
#X connect 35 0 36 0;
#X connect 36 0 38 0;
#X connect 37 0 35 0;
#X connect 38 0 39 0;
#X connect 40 0 41 0;
#X connect 41 0 43 0;
#X connect 42 0 40 0;
#X connect 43 0 44 0;
#X connect 45 0 46 0;
#X connect 46 0 48 0;
#X connect 47 0 45 0;
#X connect 48 0 49 0;
#X connect 50 0 51 0;
#X connect 51 0 53 0;
#X connect 52 0 50 0;
#X connect 53 0 54 0;
#X connect 55 0 56 0;
#X connect 56 0 63 0;
#X connect 57 0 63 0;
#X connect 58 0 63 1;
#X connect 60 0 55 0;
#X connect 61 0 62 0;
#X connect 62 0 58 0;
#X connect 63 0 6 0;
#X connect 63 0 8 0;
#X connect 64 0 77 0;
#X connect 65 0 4 0;
#X connect 66 0 3 0;
#X connect 70 0 32 0;
#X connect 71 0 31 0;
#X connect 72 0 34 0;
#X connect 73 0 33 0;
#X connect 74 0 24 0;
#X connect 75 0 23 0;
#X connect 77 0 57 0;
